<svg width="6298" height="1052" viewBox="0 0 6298 1052" fill="none" xmlns="http://www.w3.org/2000/svg">
<path d="M1508.63 754.262V114.288H1747.32C1792.8 114.288 1830.55 121.442 1860.66 135.751C1890.77 150.06 1913.36 169.59 1928.41 194.291C1943.47 218.992 1951 246.878 1951 277.95C1951 309.022 1943.79 337.378 1929.36 359.311C1914.94 381.244 1896.2 398.164 1873.14 410.07C1850.08 421.977 1825.34 428.818 1798.96 430.646L1812.81 421.507C1841.08 422.134 1866.72 429.601 1889.77 443.91C1912.83 458.219 1931.26 477.28 1945.05 501.04C1958.84 524.801 1965.79 551.016 1965.79 579.686C1965.79 612.585 1957.63 642.299 1941.37 668.828C1925.1 695.356 1901.41 716.245 1870.4 731.441C1839.39 746.69 1801.12 754.314 1755.64 754.314H1508.63V754.262ZM1600.81 390.383H1737.21C1775.9 390.383 1805.44 381.401 1825.71 363.384C1845.97 345.42 1856.13 320.563 1856.13 288.864C1856.13 257.166 1845.97 234.188 1825.71 216.172C1805.44 198.208 1775.33 189.226 1735.37 189.226H1600.81V390.383ZM1600.81 678.385H1743.69C1783.64 678.385 1814.97 669.089 1837.71 650.498C1860.45 631.907 1871.82 605.535 1871.82 571.435C1871.82 537.334 1860.14 511.119 1836.81 490.962C1813.44 470.856 1781.8 460.778 1741.9 460.778H1600.86V678.385H1600.81Z" fill="#F7F8F8"/>
<path d="M2118.07 948.612L2229.45 700.262H2203.17L2022.93 297.156H2121.64L2263.85 626.507L2407.87 297.156H2502.95L2213.15 948.612H2118.07Z" fill="#F7F8F8"/>
<path d="M2737.02 754.314V189.284H2548.67V114.288H3017.26V189.284H2828.03V754.314H2737.02Z" fill="#F7F8F8"/>
<path d="M3097.27 754.262V102.858H3189.41V372.464C3204.78 346.521 3226.09 325.85 3253.46 310.501C3280.77 295.101 3311.02 287.453 3344.18 287.453C3381.01 287.453 3412.64 294.688 3439.06 309.158C3465.47 323.628 3485.57 345.798 3499.41 375.668C3513.25 405.538 3520.15 442.488 3520.15 486.517V754.314H3428.95V495.561C3428.95 452.72 3419.9 420.162 3401.8 397.837C3383.7 375.512 3356.49 364.35 3320.29 364.35C3295.71 364.35 3273.61 370.241 3253.98 381.972C3234.3 393.755 3218.67 410.602 3206.99 432.617C3195.31 454.632 3189.47 481.35 3189.47 512.667V754.21H3097.32L3097.27 754.262Z" fill="#F7F8F8"/>
<path d="M3843.25 765.746C3800.29 765.746 3762.23 755.724 3729.09 735.732C3695.94 715.74 3670.01 687.854 3651.19 652.076C3632.36 616.35 3623 574.496 3623 526.619C3623 478.742 3632.11 436.784 3650.32 400.694C3668.53 364.657 3694.51 336.46 3728.22 316.156C3761.92 295.852 3800.9 285.727 3845.09 285.727C3889.28 285.727 3927.19 295.749 3958.8 315.741C3990.41 335.733 4014.75 362.112 4031.78 394.827C4048.82 427.541 4057.31 463.942 4057.31 503.927V523.919C4057.31 531.189 4056.69 538.77 4055.52 546.663H3688.37V483.052H3968.67C3966.88 445.456 3954.35 415.754 3931.07 393.944C3907.8 372.134 3878.85 361.23 3844.22 361.23C3819.72 361.23 3797.37 366.838 3777.06 378.054C3756.76 389.27 3740.65 405.628 3728.73 427.126C3716.76 448.624 3710.83 475.782 3710.83 508.496V533.941C3710.83 567.901 3716.81 596.358 3728.73 619.414C3740.65 642.47 3756.6 660.021 3776.65 672.12C3796.65 684.272 3818.9 690.295 3843.35 690.295C3872 690.295 3895.73 683.908 3914.55 671.185C3933.37 658.463 3946.93 641.171 3955.32 619.362H4044.88C4037.1 647.247 4023.96 672.224 4005.49 694.346C3986.98 716.467 3964.32 733.914 3937.42 746.637C3910.56 759.359 3879.21 765.746 3843.4 765.746H3843.25Z" fill="#F7F8F8"/>
<path d="M4160.17 754.314V114.288H4252.7V682.086H4548.75V754.314H4160.17Z" fill="#F7F8F8"/>
<path d="M4798.49 765.746C4760.34 765.746 4728.67 759.359 4703.48 746.637C4678.24 733.914 4659.48 716.778 4647.2 695.28C4634.87 673.782 4628.76 650.259 4628.76 624.814C4628.76 595.112 4636.77 569.511 4652.73 548.013C4668.7 526.515 4691.46 510.002 4721.03 498.474C4750.53 486.946 4786.21 481.182 4828.05 481.182H4947.98C4947.98 454.543 4943.98 432.422 4935.97 414.819C4927.96 397.267 4916.16 383.922 4900.45 374.835C4884.75 365.747 4864.94 361.178 4840.96 361.178C4813.29 361.178 4789.58 367.721 4769.93 380.702C4750.22 393.736 4737.94 413.573 4733.04 440.263H4640.77C4644.46 407.549 4655.68 379.664 4674.44 356.608C4693.2 333.604 4717.34 316 4746.85 303.901C4776.36 291.802 4807.71 285.727 4840.96 285.727C4884.64 285.727 4921.22 293.308 4950.72 308.471C4980.23 323.634 5002.52 344.976 5017.59 372.55C5032.67 400.123 5040.2 432.994 5040.2 471.212V754.841H4959.95L4952.57 677.572C4946.4 689.724 4938.55 701.2 4929.07 712.105C4919.53 723.009 4908.46 732.409 4895.87 740.302C4883.27 748.195 4868.94 754.374 4852.97 758.943C4836.96 763.513 4818.83 765.746 4798.54 765.746H4798.49ZM4815.98 692.112C4835.64 692.112 4853.5 688.166 4869.47 680.273C4885.44 672.38 4899.14 661.475 4910.52 647.558C4921.9 633.642 4930.65 618.167 4936.81 601.187C4942.98 584.207 4946.35 566.344 4946.98 547.546V545.728H4837.22C4810.13 545.728 4788.48 548.792 4772.19 554.816C4755.91 560.891 4744.05 569.511 4736.68 580.728C4729.3 591.944 4725.61 604.822 4725.61 619.362C4725.61 633.902 4729.14 646.624 4736.2 657.528C4743.26 668.433 4753.75 676.95 4767.56 682.973C4781.41 689.049 4797.54 692.061 4815.98 692.061V692.112Z" fill="#F7F8F8"/>
<path d="M5241.89 754.318L5108.78 297.208H5198.74L5297.69 678.116H5281.5L5389.44 297.208H5490.19L5600.79 677.184L5583.69 678.064L5681.71 297.156H5771.67L5639.43 754.266H5546.8L5432.59 357.921H5450.58L5334.57 754.266H5241.94L5241.89 754.318Z" fill="#F7F8F8"/>
<path d="M258.726 0C116.092 0 0 114.833 0 255.98V1051.47H804.227C946.861 1051.47 1062.9 936.639 1062.9 795.491V0H258.674H258.726ZM957.145 795.491C957.145 878.81 888.529 946.577 804.227 946.577H176.501L488.208 667.887C504.933 674.684 523.269 678.444 542.488 678.444C621.545 678.444 685.901 614.796 685.901 536.575C685.901 458.355 621.545 394.707 542.488 394.707C463.431 394.707 399.075 458.355 399.075 536.575C399.075 557.379 403.645 577.153 411.852 594.919L105.859 868.46V255.878C105.859 172.559 174.475 104.792 258.778 104.792H957.197V795.44L957.145 795.491Z" fill="#49B6B6"/>
<path d="M6149.58 400.013C6120.34 400.013 6094.49 393.67 6071.94 380.932C6049.38 368.194 6031.83 350.608 6019.2 328.123C6006.56 305.638 6000.24 280.213 6000.24 251.797C6000.24 223.381 6006.56 197.389 6019.2 175.11C6031.83 152.883 6049.38 135.245 6071.94 122.301C6094.49 109.357 6120.34 102.858 6149.58 102.858C6178.82 102.858 6203.83 109.357 6226.07 122.301C6248.37 135.245 6265.81 152.883 6278.45 175.11C6291.08 197.389 6297.4 222.917 6297.4 251.797C6297.4 280.677 6291.08 305.586 6278.45 328.123C6265.81 350.608 6248.37 368.245 6226.07 380.932C6203.78 393.67 6178.3 400.013 6149.58 400.013ZM6149.58 373.557C6173.86 373.557 6194.74 368.297 6212.34 357.776C6229.94 347.256 6243.67 332.816 6253.59 314.508C6263.51 296.148 6268.47 275.262 6268.47 251.797C6268.47 228.332 6263.51 206.827 6253.59 188.673C6243.67 170.572 6229.94 156.287 6212.34 145.766C6194.74 135.245 6173.81 129.985 6149.58 129.985C6125.35 129.985 6104.15 135.245 6086.09 145.766C6068.02 156.287 6054.03 170.572 6044.1 188.673C6034.18 206.775 6029.28 227.816 6029.28 251.797C6029.28 275.778 6034.24 296.2 6044.1 314.508C6054.03 332.867 6068.02 347.307 6086.09 357.776C6104.15 368.297 6125.35 373.557 6149.58 373.557ZM6090.16 329.567V171.809H6160.7C6177.51 171.809 6190.78 176.09 6200.44 184.651C6210.1 193.212 6214.9 205.073 6214.9 220.235C6214.9 235.397 6210.1 246.537 6200.44 255.098C6190.78 263.658 6177.51 267.939 6160.7 267.939H6125.04V329.567H6090.11H6090.16ZM6125.09 240.038H6157.78C6164.2 240.038 6169.52 238.595 6173.75 235.655C6177.93 232.715 6180.07 227.816 6180.07 220.957C6180.07 214.098 6177.98 209.354 6173.75 206.672C6169.52 203.99 6164.2 202.649 6157.78 202.649H6125.09V240.09V240.038ZM6179.29 329.567L6133.24 256.954H6171.14L6220.9 329.567H6179.29Z" fill="#F7F8F8"/>
</svg>
