<svg width="977" height="163" viewBox="0 0 977 163" fill="none" xmlns="http://www.w3.org/2000/svg">
<path d="M233.869 116.926V17.7168H270.87C277.921 17.7168 283.773 18.8259 288.441 21.044C293.109 23.2621 296.61 26.2898 298.944 30.1189C301.278 33.9481 302.445 38.271 302.445 43.0878C302.445 47.9046 301.327 52.3004 299.091 55.7005C296.855 59.1006 293.95 61.7234 290.375 63.5692C286.801 65.415 282.965 66.4755 278.876 66.7588L281.023 65.3421C285.405 65.4392 289.379 66.5969 292.954 68.8151C296.528 71.0332 299.385 73.988 301.523 77.6715C303.661 81.3549 304.738 85.4188 304.738 89.8631C304.738 94.9633 303.473 99.5695 300.952 103.682C298.43 107.794 294.758 111.033 289.951 113.388C285.144 115.752 279.211 116.934 272.16 116.934H233.869V116.926ZM248.159 60.5173H269.304C275.302 60.5173 279.88 59.1248 283.022 56.3319C286.164 53.5471 287.739 49.6937 287.739 44.7798C287.739 39.8659 286.164 36.3038 283.022 33.5109C279.88 30.7261 275.212 29.3337 269.018 29.3337H248.159V60.5173ZM248.159 105.164H270.307C276.501 105.164 281.357 103.723 284.883 100.841C288.408 97.9586 290.171 93.8704 290.171 88.5841C290.171 83.2978 288.359 79.2339 284.744 76.109C281.121 72.9923 276.216 71.4299 270.03 71.4299H248.167V105.164H248.159Z" fill="#242929"/>
<path d="M328.344 147.054L345.61 108.555H341.536L313.596 46.0653H328.897L350.943 97.1216L373.269 46.0653H388.009L343.084 147.054H328.344Z" fill="#242929"/>
<path d="M424.296 116.934V29.3428H395.098V17.7168H467.739V29.3428H438.404V116.934H424.296Z" fill="#242929"/>
<path d="M480.141 116.927V15.9458H494.425V57.7402C496.807 53.7186 500.111 50.5141 504.353 48.1348C508.586 45.7475 513.277 44.5618 518.416 44.5618C524.126 44.5618 529.029 45.6834 533.124 47.9265C537.219 50.1696 540.336 53.6064 542.481 58.2369C544.626 62.8674 545.695 68.5954 545.695 75.4209V116.935H531.558V76.8229C531.558 70.1816 530.155 65.1345 527.349 61.6737C524.542 58.2129 520.325 56.4824 514.713 56.4824C510.903 56.4824 507.477 57.3957 504.434 59.2142C501.383 61.0408 498.96 63.6525 497.149 67.0653C495.338 70.478 494.433 74.6198 494.433 79.4746V116.919H480.149L480.141 116.927Z" fill="#242929"/>
<path d="M595.783 118.706C589.123 118.706 583.223 117.152 578.085 114.053C572.947 110.954 568.927 106.631 566.009 101.085C563.091 95.5463 561.64 89.0582 561.64 81.6362C561.64 74.2142 563.052 67.7099 565.875 62.1153C568.697 56.5287 572.725 52.1576 577.951 49.0101C583.176 45.8626 589.218 44.2928 596.069 44.2928C602.919 44.2928 608.795 45.8465 613.695 48.9457C618.595 52.0449 622.369 56.1342 625.01 61.2056C627.65 66.277 628.966 71.92 628.966 78.1184V81.2176C628.966 82.3446 628.871 83.5199 628.689 84.7434H571.774V74.8823H615.225C614.948 69.0542 613.005 64.4497 609.397 61.0688C605.79 57.6878 601.302 55.9974 595.934 55.9974C592.136 55.9974 588.671 56.8668 585.523 58.6055C582.375 60.3443 579.877 62.88 578.03 66.2127C576.174 69.5453 575.255 73.7554 575.255 78.8268V82.7712C575.255 88.0358 576.182 92.4472 578.03 96.0213C579.877 99.5955 582.351 102.316 585.459 104.192C588.56 106.076 592.009 107.009 595.799 107.009C600.239 107.009 603.918 106.019 606.836 104.047C609.754 102.075 611.855 99.3942 613.156 96.0133H627.04C625.835 100.336 623.797 104.208 620.934 107.637C618.064 111.067 614.551 113.771 610.381 115.743C606.218 117.716 601.357 118.706 595.807 118.706H595.783Z" fill="#242929"/>
<path d="M644.913 116.934V17.7168H659.258V105.737H705.152V116.934H644.913Z" fill="#242929"/>
<path d="M743.865 118.706C737.951 118.706 733.041 117.716 729.136 115.743C725.224 113.771 722.315 111.115 720.412 107.782C718.501 104.45 717.553 100.803 717.553 96.8585C717.553 92.254 718.795 88.2854 721.27 84.9527C723.745 81.6201 727.274 79.0603 731.857 77.2732C736.431 75.4861 741.962 74.5926 748.448 74.5926H767.04C767.04 70.463 766.419 67.0337 765.178 64.3048C763.936 61.584 762.106 59.5152 759.672 58.1064C757.237 56.6977 754.166 55.9893 750.449 55.9893C746.16 55.9893 742.484 57.0036 739.437 59.0161C736.382 61.0366 734.479 64.1116 733.719 68.2493H719.416C719.987 63.1778 721.727 58.8551 724.635 55.2809C727.544 51.7148 731.285 48.9859 735.859 47.1103C740.434 45.2347 745.294 44.2928 750.449 44.2928C757.221 44.2928 762.89 45.4681 767.465 47.8187C772.039 50.1693 775.495 53.4778 777.831 57.7523C780.167 62.0267 781.336 67.1223 781.336 73.047V117.015H768.894L767.751 105.037C766.795 106.921 765.578 108.7 764.107 110.39C762.629 112.081 760.913 113.538 758.961 114.761C757.009 115.985 754.787 116.943 752.312 117.651C749.828 118.36 747.018 118.706 743.873 118.706H743.865ZM746.577 107.291C749.624 107.291 752.393 106.679 754.868 105.456C757.344 104.232 759.468 102.542 761.232 100.384C762.996 98.227 764.353 95.8281 765.308 93.1958C766.264 90.5635 766.787 87.7944 766.885 84.8803V84.5985H749.869C745.67 84.5985 742.313 85.0735 739.789 86.0073C737.265 86.9491 735.426 88.2854 734.283 90.0241C733.139 91.7629 732.567 93.7593 732.567 96.0133C732.567 98.2672 733.115 100.239 734.209 101.93C735.304 103.62 736.93 104.941 739.07 105.874C741.218 106.816 743.718 107.283 746.577 107.283V107.291Z" fill="#242929"/>
<path d="M812.603 116.935L791.968 46.0733H805.913L821.252 105.122H818.743L835.476 46.0733H851.093L868.24 104.977L865.588 105.114L880.783 46.0653H894.729L874.229 116.927H859.87L842.165 55.4851H844.953L826.97 116.927H812.611L812.603 116.935Z" fill="#242929"/>
<path d="M40.1079 0C17.9966 0 0 17.8015 0 39.6823V163H124.672C146.783 163 164.772 145.198 164.772 123.318V0H40.0998H40.1079ZM148.377 123.318C148.377 136.234 137.741 146.739 124.672 146.739H27.3613L75.6824 103.536C78.2752 104.59 81.1176 105.173 84.0969 105.173C96.3524 105.173 106.329 95.3062 106.329 83.1804C106.329 71.0545 96.3524 61.1879 84.0969 61.1879C71.8415 61.1879 61.8649 71.0545 61.8649 83.1804C61.8649 86.4054 62.5734 89.4708 63.8457 92.2248L16.4103 134.629V39.6664C16.4103 26.7502 27.0472 16.2449 40.1159 16.2449H148.385V123.31L148.377 123.318Z" fill="#3F9E9E"/>
<path d="M953.313 62.011C948.78 62.011 944.773 61.0277 941.276 59.053C937.78 57.0783 935.06 54.3521 933.101 50.8665C931.142 47.3808 930.163 43.4394 930.163 39.0344C930.163 34.6293 931.142 30.6 933.101 27.1463C935.06 23.7006 937.78 20.9665 941.276 18.9598C944.773 16.9531 948.78 15.9458 953.313 15.9458C957.846 15.9458 961.723 16.9531 965.171 18.9598C968.627 20.9665 971.331 23.7006 973.29 27.1463C975.249 30.6 976.228 34.5574 976.228 39.0344C976.228 43.5114 975.249 47.3728 973.29 50.8665C971.331 54.3521 968.627 57.0863 965.171 59.053C961.715 61.0277 957.765 62.011 953.313 62.011ZM953.313 57.9097C957.077 57.9097 960.315 57.0943 963.042 55.4634C965.77 53.8325 967.899 51.594 969.437 48.7559C970.975 45.9098 971.744 42.6719 971.744 39.0344C971.744 35.3968 970.975 32.063 969.437 29.2489C967.899 26.4428 965.77 24.2283 963.042 22.5974C960.315 20.9665 957.069 20.151 953.313 20.151C949.557 20.151 946.271 20.9665 943.47 22.5974C940.669 24.2283 938.5 26.4428 936.962 29.2489C935.424 32.055 934.663 35.3169 934.663 39.0344C934.663 42.7519 935.432 45.9178 936.962 48.7559C938.5 51.602 940.669 53.8405 943.47 55.4634C946.271 57.0943 949.557 57.9097 953.313 57.9097ZM944.101 51.0903V26.6347H955.037C957.643 26.6347 959.699 27.2982 961.197 28.6253C962.694 29.9524 963.439 31.7912 963.439 34.1416C963.439 36.4921 962.694 38.2189 961.197 39.546C959.699 40.8732 957.643 41.5367 955.037 41.5367H949.509V51.0903H944.093H944.101ZM949.517 37.2116H954.584C955.579 37.2116 956.405 36.9877 957.061 36.532C957.708 36.0763 958.04 35.3169 958.04 34.2536C958.04 33.1903 957.716 32.4548 957.061 32.039C956.405 31.6233 955.579 31.4154 954.584 31.4154H949.517V37.2196V37.2116ZM957.919 51.0903L950.779 39.8338H956.656L964.37 51.0903H957.919Z" fill="#242929"/>
</svg>
