<svg width="135" height="134" viewBox="0 0 135 134" fill="none" xmlns="http://www.w3.org/2000/svg">
<path d="M32.7294 0C14.6858 0 0 14.5266 0 32.3821V133.013H101.736C119.78 133.013 134.459 118.487 134.459 100.631V0H32.7228H32.7294ZM121.081 100.631C121.081 111.171 112.401 119.744 101.736 119.744H22.3277L61.7594 84.4892C63.8752 85.3491 66.1947 85.8246 68.6259 85.8246C78.6268 85.8246 86.768 77.773 86.768 67.878C86.768 57.9829 78.6268 49.9313 68.6259 49.9313C58.6251 49.9313 50.4838 57.9829 50.4838 67.878C50.4838 70.5097 51.062 73.0112 52.1002 75.2586L13.3914 109.862V32.3691C13.3914 21.8291 22.0715 13.2564 32.7359 13.2564H121.088V100.625L121.081 100.631Z" fill="#49B6B6"/>
</svg>
